<svg width="120" height="968" viewBox="0 0 120 968" fill="none" xmlns="http://www.w3.org/2000/svg">
<path d="M54 218L34 210.5C36.6666 199.5 42.5 182 55.5 187.5C67.878 192.737 59 211.167 54 218Z" fill="#ED008C"/>
<path d="M50.5 225L31 219.5C16.5 241 5.99997 289.5 31 289.5C54.0529 289.5 55.5 253 50.5 236.5C49.1363 232 50.5 228.5 50.5 225Z" fill="#ED008C"/>
<path d="M54 218L34 210.5C36.6666 199.5 42.5 182 55.5 187.5C67.878 192.737 59 211.167 54 218Z" stroke="#ED008C"/>
<path d="M50.5 225L31 219.5C16.5 241 5.99997 289.5 31 289.5C54.0529 289.5 55.5 253 50.5 236.5C49.1363 232 50.5 228.5 50.5 225Z" stroke="#ED008C"/>
<path d="M54 32.5437L34 25.0437C36.6666 14.0437 42.5 -3.45627 55.5 2.04373C67.878 7.28059 59 25.7104 54 32.5437Z" fill="#ED008C"/>
<path d="M50.5 39.5437L31 34.0437C16.5 55.5437 5.99997 104.044 31 104.044C54.0529 104.044 55.5 67.5437 50.5 51.0437C49.1363 46.5437 50.5 43.0437 50.5 39.5437Z" fill="#ED008C"/>
<path d="M54 32.5437L34 25.0437C36.6666 14.0437 42.5 -3.45627 55.5 2.04373C67.878 7.28059 59 25.7104 54 32.5437Z" stroke="#ED008C"/>
<path d="M50.5 39.5437L31 34.0437C16.5 55.5437 5.99997 104.044 31 104.044C54.0529 104.044 55.5 67.5437 50.5 51.0437C49.1363 46.5437 50.5 43.0437 50.5 39.5437Z" stroke="#ED008C"/>
<path d="M49.0656 414.544L29.0656 407.044C31.7323 396.044 37.5656 378.544 50.5656 384.044C62.9436 389.281 54.0656 407.71 49.0656 414.544Z" fill="#ED008C"/>
<path d="M45.5656 421.544L26.0656 416.044C11.5656 437.544 1.06558 486.044 26.0656 486.044C49.1185 486.044 50.5656 449.544 45.5656 433.044C44.202 428.544 45.5656 425.044 45.5656 421.544Z" fill="#ED008C"/>
<path d="M49.0656 414.544L29.0656 407.044C31.7323 396.044 37.5656 378.544 50.5656 384.044C62.9436 389.281 54.0656 407.71 49.0656 414.544Z" stroke="#ED008C"/>
<path d="M45.5656 421.544L26.0656 416.044C11.5656 437.544 1.06558 486.044 26.0656 486.044C49.1185 486.044 50.5656 449.544 45.5656 433.044C44.202 428.544 45.5656 425.044 45.5656 421.544Z" stroke="#ED008C"/>
<path d="M39.0656 599.544L19.0656 592.044C21.7323 581.044 27.5656 563.544 40.5656 569.044C52.9436 574.281 44.0656 592.71 39.0656 599.544Z" fill="#ED008C"/>
<path d="M35.5656 606.544L16.0656 601.044C1.5656 622.544 -8.93442 671.044 16.0656 671.044C39.1185 671.044 40.5656 634.544 35.5656 618.044C34.202 613.544 35.5656 610.044 35.5656 606.544Z" fill="#ED008C"/>
<path d="M39.0656 599.544L19.0656 592.044C21.7323 581.044 27.5656 563.544 40.5656 569.044C52.9436 574.281 44.0656 592.71 39.0656 599.544Z" stroke="#ED008C"/>
<path d="M35.5656 606.544L16.0656 601.044C1.5656 622.544 -8.93442 671.044 16.0656 671.044C39.1185 671.044 40.5656 634.544 35.5656 618.044C34.202 613.544 35.5656 610.044 35.5656 606.544Z" stroke="#ED008C"/>
<path d="M39.0656 796.544L19.0656 789.044C21.7323 778.044 27.5656 760.544 40.5656 766.044C52.9436 771.281 44.0656 789.71 39.0656 796.544Z" fill="#ED008C"/>
<path d="M35.5656 803.544L16.0656 798.044C1.5656 819.544 -8.93442 868.044 16.0656 868.044C39.1185 868.044 40.5656 831.544 35.5656 815.044C34.202 810.544 35.5656 807.044 35.5656 803.544Z" fill="#ED008C"/>
<path d="M39.0656 796.544L19.0656 789.044C21.7323 778.044 27.5656 760.544 40.5656 766.044C52.9436 771.281 44.0656 789.71 39.0656 796.544Z" stroke="#ED008C"/>
<path d="M35.5656 803.544L16.0656 798.044C1.5656 819.544 -8.93442 868.044 16.0656 868.044C39.1185 868.044 40.5656 831.544 35.5656 815.044C34.202 810.544 35.5656 807.044 35.5656 803.544Z" stroke="#ED008C"/>
<path d="M80.7833 316.544L100.783 309.044C98.1167 298.044 92.2833 280.544 79.2833 286.044C66.9053 291.281 75.7833 309.71 80.7833 316.544Z" fill="#ED008C"/>
<path d="M84.2833 323.544L103.783 318.044C118.283 339.544 128.783 388.044 103.783 388.044C80.7304 388.044 79.2833 351.544 84.2833 335.044C85.647 330.544 84.2833 327.044 84.2833 323.544Z" fill="#ED008C"/>
<path d="M80.7833 316.544L100.783 309.044C98.1167 298.044 92.2833 280.544 79.2833 286.044C66.9053 291.281 75.7833 309.71 80.7833 316.544Z" stroke="#ED008C"/>
<path d="M84.2833 323.544L103.783 318.044C118.283 339.544 128.783 388.044 103.783 388.044C80.7304 388.044 79.2833 351.544 84.2833 335.044C85.647 330.544 84.2833 327.044 84.2833 323.544Z" stroke="#ED008C"/>
<path d="M80.7833 131.087L100.783 123.587C98.1167 112.587 92.2833 95.0875 79.2833 100.587C66.9053 105.824 75.7833 124.254 80.7833 131.087Z" fill="#ED008C"/>
<path d="M84.2833 138.087L103.783 132.587C118.283 154.087 128.783 202.587 103.783 202.587C80.7304 202.587 79.2833 166.087 84.2833 149.587C85.647 145.087 84.2833 141.587 84.2833 138.087Z" fill="#ED008C"/>
<path d="M80.7833 131.087L100.783 123.587C98.1167 112.587 92.2833 95.0875 79.2833 100.587C66.9053 105.824 75.7833 124.254 80.7833 131.087Z" stroke="#ED008C"/>
<path d="M84.2833 138.087L103.783 132.587C118.283 154.087 128.783 202.587 103.783 202.587C80.7304 202.587 79.2833 166.087 84.2833 149.587C85.647 145.087 84.2833 141.587 84.2833 138.087Z" stroke="#ED008C"/>
<path d="M75.849 513.087L95.849 505.587C93.1823 494.587 87.3489 477.087 74.349 482.587C61.9709 487.824 70.849 506.254 75.849 513.087Z" fill="#ED008C"/>
<path d="M79.349 520.087L98.849 514.587C113.349 536.087 123.849 584.587 98.849 584.587C75.796 584.587 74.349 548.087 79.349 531.587C80.7126 527.087 79.349 523.587 79.349 520.087Z" fill="#ED008C"/>
<path d="M75.849 513.087L95.849 505.587C93.1823 494.587 87.3489 477.087 74.349 482.587C61.9709 487.824 70.849 506.254 75.849 513.087Z" stroke="#ED008C"/>
<path d="M79.349 520.087L98.849 514.587C113.349 536.087 123.849 584.587 98.849 584.587C75.796 584.587 74.349 548.087 79.349 531.587C80.7126 527.087 79.349 523.587 79.349 520.087Z" stroke="#ED008C"/>
<path d="M65.849 698.087L85.849 690.587C83.1823 679.587 77.3489 662.087 64.349 667.587C51.9709 672.824 60.849 691.254 65.849 698.087Z" fill="#ED008C"/>
<path d="M69.349 705.087L88.849 699.587C103.349 721.087 113.849 769.587 88.849 769.587C65.796 769.587 64.349 733.087 69.349 716.587C70.7126 712.087 69.349 708.587 69.349 705.087Z" fill="#ED008C"/>
<path d="M65.849 698.087L85.849 690.587C83.1823 679.587 77.3489 662.087 64.349 667.587C51.9709 672.824 60.849 691.254 65.849 698.087Z" stroke="#ED008C"/>
<path d="M69.349 705.087L88.849 699.587C103.349 721.087 113.849 769.587 88.849 769.587C65.796 769.587 64.349 733.087 69.349 716.587C70.7126 712.087 69.349 708.587 69.349 705.087Z" stroke="#ED008C"/>
<path d="M65.849 895.087L85.849 887.587C83.1823 876.587 77.3489 859.087 64.349 864.587C51.9709 869.824 60.849 888.254 65.849 895.087Z" fill="#ED008C"/>
<path d="M69.349 902.087L88.849 896.587C103.349 918.087 113.849 966.587 88.849 966.587C65.796 966.587 64.349 930.087 69.349 913.587C70.7126 909.087 69.349 905.587 69.349 902.087Z" fill="#ED008C"/>
<path d="M65.849 895.087L85.849 887.587C83.1823 876.587 77.3489 859.087 64.349 864.587C51.9709 869.824 60.849 888.254 65.849 895.087Z" stroke="#ED008C"/>
<path d="M69.349 902.087L88.849 896.587C103.349 918.087 113.849 966.587 88.849 966.587C65.796 966.587 64.349 930.087 69.349 913.587C70.7126 909.087 69.349 905.587 69.349 902.087Z" stroke="#ED008C"/>
</svg>
